<?xml version="1.0" encoding="UTF-8"?>
<svg id="_图层_1" data-name="图层 1" xmlns="http://www.w3.org/2000/svg" viewBox="0 0 976.8887 84.7432">
  <defs>
    <style>
      .cls-1 {
        fill: #ffffff;
      }
    </style>
  </defs>
  <path class="cls-1" d="M30.5308,61.1992c-14.9053,0-26.9307-12.0249-26.9307-26.9302S15.6255,7.1943,30.5308,7.1943s27.0024,12.1694,27.0024,27.0747-12.0972,26.9302-27.0024,26.9302ZM30.5308,21.3076c-7.0566,0-12.8174,5.7607-12.8174,12.8892,0,7.0566,5.7607,12.8892,12.8174,12.8892,7.1284,0,12.8892-5.8325,12.8892-12.8892,0-7.1284-5.7607-12.8892-12.8892-12.8892Z"/>
  <path class="cls-1" d="M85.2485,7.1943h22.7539c10.9448,0,19.8735,8.9292,19.8735,19.874,0,10.873-8.8564,19.8018-19.5854,19.8018h-8.8569v14.3291h-14.1851V7.1943ZM108.2183,34.6289c4.3208,0,7.7769-3.3843,7.7769-7.7046s-3.4561-7.7769-7.7769-7.7769h-8.7847v15.4814h8.7847Z"/>
  <path class="cls-1" d="M154.1514,7.1943h33.5547v11.7373h-19.3696v8.7847h17.1377v11.9531h-17.1377v9.937h19.3696v11.5928h-33.5547V7.1943Z"/>
  <path class="cls-1" d="M215.7832,7.1943h5.7607l25.5625,25.4902V7.1943h14.1846v54.0049h-5.832l-25.4902-25.562v25.562h-14.1855V7.1943Z"/>
  <path class="cls-1" d="M290.0869,39.8853V7.1943h14.2568v32.4751c0,3.8882,3.1689,7.0566,7.0566,7.0566s7.0566-3.1685,7.0566-7.0566V7.1943h14.2578v32.6909c0,11.8813-9.5771,21.314-21.3145,21.314-11.8809,0-21.3135-9.4326-21.3135-21.314Z"/>
  <path class="cls-1" d="M373.751,21.2358h-14.041V7.1226h42.5557v14.1133h-14.3291v39.9634h-14.1855V21.2358Z"/>
  <path class="cls-1" d="M450.5039,7.1943h6.3359l25.4189,54.0049h-14.1855l-3.3125-7.0566h-22.1055l-3.2402,7.0566h-14.1133l25.2021-54.0049ZM459.2168,42.1895l-5.4727-11.8809-5.5449,11.8809h11.0176Z"/>
  <path class="cls-1" d="M507.0938,39.8853V7.1943h14.2568v32.4751c0,3.8882,3.1689,7.0566,7.0566,7.0566s7.0566-3.1685,7.0566-7.0566V7.1943h14.2578v32.6909c0,11.8813-9.5771,21.314-21.3145,21.314-11.8809,0-21.3135-9.4326-21.3135-21.314Z"/>
  <path class="cls-1" d="M596.5166,7.1943h6.4082l22.0342,20.0181,21.9619-20.0181h6.4092v54.0049h-14.2578v-27.7222l-14.1133,12.8887-14.1855-12.8169v27.6504h-14.2568V7.1943Z"/>
  <path class="cls-1" d="M707.2539,61.1992c-14.9053,0-26.9297-12.0249-26.9297-26.9302s12.0244-27.0747,26.9297-27.0747,27.0029,12.1694,27.0029,27.0747-12.0977,26.9302-27.0029,26.9302ZM707.2539,21.3076c-7.0566,0-12.8164,5.7607-12.8164,12.8892,0,7.0566,5.7598,12.8892,12.8164,12.8892,7.1289,0,12.8896-5.8325,12.8896-12.8892,0-7.1284-5.7607-12.8892-12.8896-12.8892Z"/>
  <path class="cls-1" d="M761.9717,7.1943h23.835c8.6406,0,15.9854,7.417,15.9854,16.0576,0,3.6724-1.3682,7.0566-3.457,9.7207,3.6729,2.9521,6.1211,7.4888,6.1211,12.3853,0,8.5688-7.2725,15.8413-15.8418,15.8413h-26.6426V7.1943ZM782.998,28.2925c2.5918,0,4.6807-2.0884,4.6807-4.6807s-2.0889-4.6802-4.6807-4.6802h-6.8408v9.3608h6.8408ZM785.6621,49.5342c2.5918,0,4.6807-2.0884,4.6807-4.6802s-2.2324-4.6807-4.6807-4.6807h-9.5049v9.3608h9.5049Z"/>
  <path class="cls-1" d="M831.8105,7.1943h14.1855v54.0049h-14.1855V7.1943Z"/>
  <path class="cls-1" d="M876.2344,7.1943h14.1855v39.7476h19.4414v14.2573h-33.627V7.1943Z"/>
  <path class="cls-1" d="M938.6572,7.1943h33.5557v11.7373h-19.3701v8.7847h17.1377v11.9531h-17.1377v9.937h19.3701v11.5928h-33.5557V7.1943Z"/>
</svg>