<?xml version="1.0" encoding="UTF-8"?>
<svg id="_图层_1" xmlns="http://www.w3.org/2000/svg" version="1.1" viewBox="0 0 512 512">
  <!-- Generator: Adobe Illustrator 29.8.1, SVG Export Plug-In . SVG Version: 2.1.1 Build 2)  -->
  <defs>
    <style>
      .st0 {
        fill: #e0e0e0;
      }

      .st1 {
        isolation: isolate;
      }
    </style>
  </defs>
  <path class="st0" d="M274.56,321.49l-54.19-53.55.64-.64c36.14-40.17,63.14-87.7,79.15-139.31h62.51v-42.67h-149.33v-42.67h-42.67v42.67H21.33v42.45h238.29c-14.29,41.17-36.91,80.21-67.63,114.35-19.84-21.97-36.27-46.08-49.28-71.47h-42.67c15.57,34.77,36.91,67.63,63.57,97.28l-108.59,107.09,30.29,30.29,106.67-106.67,66.35,66.35,16.21-43.52.02.02h0Z"/>
  <g class="st1">
    <g class="st1">
      <path class="st0" d="M304.77,455.46h-13.36v-169.69h13.36v169.69Z"/>
      <path class="st0" d="M418.35,429.4h-16.04c-.9-.89-1.57-2.11-2-3.67-.45-1.56-.67-3.45-.67-5.68-3.12,3.57-6.91,6.24-11.36,8.02-4.46,1.79-9.13,2.67-14.03,2.67-7.13,0-13.14-1.78-18.04-5.34-4.91-3.56-7.35-8.69-7.35-15.37s2.22-12.03,6.68-16.03c4.45-4.01,11.36-6.68,20.71-8.02,6.23-.89,11.69-2,16.37-3.34s7.02-3.11,7.02-5.34c0-2.67-1-5.34-3.01-8.02-2-2.67-6.35-4.01-13.03-4.01-5.34,0-9.25,1-11.69,3.01-2.45,2-4.12,4.79-5.01,8.35h-14.7c.89-7.12,4.11-12.8,9.69-17.04,5.56-4.23,12.8-6.35,21.71-6.35,9.79,0,17.14,2.23,22.05,6.68,4.9,4.46,7.35,10.69,7.35,18.71v36.75c0,2.67.44,5.12,1.34,7.35.89,2.23,2.22,4.46,4.01,6.68h0ZM399.64,404.68v-13.36c-2.67.9-5.24,1.67-7.68,2.34-2.45.67-6.58,1.45-12.36,2.34-6.68.9-11.02,2.45-13.03,4.68-2,2.23-3.01,4.91-3.01,8.02,0,2.67,1,5.01,3.01,7.01s5.01,3.01,9.02,3.01,8.35-1.11,13.03-3.34c4.68-2.22,8.35-5.78,11.02-10.69h0Z"/>
      <path class="st0" d="M475.8,455.46h-13.36v-169.69h13.36v169.69Z"/>
    </g>
  </g>
  <polyline class="st0" points="258.35 365.01 274.56 382.42 274.56 321.49"/>
</svg>