<?xml version="1.0" encoding="UTF-8"?>
<svg id="_图层_1" data-name="图层 1" xmlns="http://www.w3.org/2000/svg" viewBox="0 0 160 160">
  <defs>
    <style>
      .cls-1 {
        fill: #000000;
      }
    </style>
  </defs>
  <path class="cls-1" d="M20.0072,115.5531v24.4397h24.4397l72.0808-72.0808-24.4397-24.4397L20.0072,115.5531ZM139.9899,44.4498l-24.4397-24.4397-16.4887,16.5538,24.4397,24.4397,16.4886-16.5538Z"/>
  <g>
    <path class="cls-1" d="M94.4619,129.8145v10.1777h-3.5156v-27.2285h7.7344c2.9414,0,5.2236.709,6.8467,2.127s2.4346,3.4453,2.4346,6.082c0,2.6719-.9492,4.8369-2.8477,6.4951s-4.2715,2.4404-7.1191,2.3467h-3.5332ZM94.4619,115.8574v10.8633h3.252c2.1445,0,3.7734-.4834,4.8867-1.4502s1.6699-2.3525,1.6699-4.1572c0-3.5039-2.0742-5.2559-6.2227-5.2559h-3.5859Z"/>
    <path class="cls-1" d="M116.4873,112.7637v27.2285h-3.5156v-27.2285h3.5156Z"/>
    <path class="cls-1" d="M140.0068,115.8926h-7.8574v24.0996h-3.5332v-24.0996h-7.8223v-3.1289h19.2129v3.1289Z"/>
  </g>
</svg>